<?xml version="1.0" encoding="iso-8859-1"?>
<!-- Generator: Adobe Illustrator 19.0.0, SVG Export Plug-In . SVG Version: 6.00 Build 0)  -->
<svg version="1.1" id="Capa_1" xmlns="http://www.w3.org/2000/svg" xmlns:xlink="http://www.w3.org/1999/xlink" x="0px" y="0px"
	 viewBox="0 0 418.088 418.088" style="enable-background:new 0 0 418.088 418.088;" xml:space="preserve">
<path id="XMLID_654_" d="M101.712,255.562v130.135c0,3.866-3.134,7-7,7s-7-3.134-7-7V255.562c0-3.866,3.134-7,7-7
	S101.712,251.696,101.712,255.562z M178.845,18.142v381.803c0,10.004-8.139,18.143-18.143,18.143h-86.72
	c-10.005,0-18.145-8.139-18.145-18.143V18.142C55.838,8.139,63.978,0,73.982,0h86.72C170.706,0,178.845,8.139,178.845,18.142z
	 M164.845,145.573h-23.348v40.363c0,11.25-9.152,20.404-20.401,20.404h-7.509c-11.251,0-20.404-9.153-20.404-20.404v-40.363H69.838
	v254.373c0,2.246,1.898,4.143,4.145,4.143h86.72c2.245,0,4.143-1.897,4.143-4.143V145.573z M113.587,192.339h7.509
	c3.47,0,6.401-2.933,6.401-6.404V64.924c0-3.471-2.932-6.403-6.401-6.403h-7.509c-3.531,0-6.404,2.872-6.404,6.403v73.648v47.363
	C107.183,189.407,110.115,192.339,113.587,192.339z M164.845,18.142c0-2.245-1.897-4.142-4.143-4.142h-86.72
	c-2.246,0-4.145,1.897-4.145,4.142v113.431h23.345V64.924c0-11.25,9.153-20.403,20.404-20.403h7.509
	c11.249,0,20.401,9.153,20.401,20.403v66.648h23.348V18.142z M362.25,138.573v261.373c0,10.004-8.139,18.143-18.144,18.143h-86.72
	c-10.004,0-18.143-8.139-18.143-18.143V112.455c0-2.134,0.974-4.151,2.644-5.479l27.488-21.852V56.926
	c0-3.616,2.742-6.592,6.261-6.961V20.264c0-2.938,1.834-5.563,4.593-6.573l36.22-13.264c2.149-0.786,4.543-0.474,6.417,0.835
	c1.874,1.31,2.99,3.452,2.99,5.738v42.964c3.519,0.369,6.261,3.345,6.261,6.961v28.198l27.488,21.852
	c1.67,1.328,2.644,3.346,2.644,5.479v25.999C362.25,138.494,362.25,138.533,362.25,138.573z M289.637,49.926h22.22V17.018
	l-22.22,8.137V49.926z M253.244,131.573h95.005v-15.741L320.761,93.98c-1.67-1.328-2.644-3.345-2.644-5.479V63.926h-34.741v24.575
	c0,2.134-0.974,4.151-2.644,5.479l-27.488,21.852V131.573z M348.25,145.573h-95.006v254.373c0,2.246,1.897,4.143,4.143,4.143h86.72
	c2.246,0,4.144-1.897,4.144-4.143V145.573z M278.115,392.697c3.866,0,7-3.134,7-7V255.562c0-3.866-3.134-7-7-7s-7,3.134-7,7v130.135
	C271.115,389.563,274.249,392.697,278.115,392.697z"/>
<g>
</g>
<g>
</g>
<g>
</g>
<g>
</g>
<g>
</g>
<g>
</g>
<g>
</g>
<g>
</g>
<g>
</g>
<g>
</g>
<g>
</g>
<g>
</g>
<g>
</g>
<g>
</g>
<g>
</g>
</svg>
